# xmcd
# Track frame offsets:
# 150
# 15446
# 34593
# 51779
# 63862
# 84921
# 103781
# 120136
# 140238
# 154835
# 173535
# 184808
# 206366
# 226979
# 248541
# 265252
# 280795
# 299876
# 320410
#
# Disc length: 4632 seconds
# Revision: 0
# Processed by: cddbd v1.5PL3 Copyright (c) Steve Scherf et al.
# Submitted via: VisiTrax 2.9.5.181 - For more info visit www.synapsa.com
#
DISCID=fe121613
DTITLE=Joe Longthorne - Your My World
DYEAR=2002
DGENRE=pop
TTITLE0=I Wanna Be Where You Are
TTITLE1=My Prayer
TTITLE2=I've Waited So Long
TTITLE3=To All The Girls I've Loved Before
TTITLE4=Joanna
TTITLE5=Your The Best Thing That Ever Happened To Me
TTITLE6=Just Loving You
TTITLE7=Somewhere
TTITLE8=You're My World
TTITLE9=What A Wonderful World
TTITLE10=Morning Has Broken
TTITLE11=My Love For You
TTITLE12=Wind Beneath My Wings
TTITLE13=Love Is All
TTITLE14=It Was Almost Like A Song
TTITLE15=Danny Boy
TTITLE16=What's Going On
TTITLE17=I Still Love You
TTITLE18=If I Never Sing Another Song
EXTD=
EXTT0=
EXTT1=
EXTT2=
EXTT3=
EXTT4=
EXTT5=
EXTT6=
EXTT7=
EXTT8=
EXTT9=
EXTT10=
EXTT11=
EXTT12=
EXTT13=
EXTT14=
EXTT15=
EXTT16=
EXTT17=
EXTT18=
PLAYORDER=
